<svg width="60" height="60" viewBox="0 0 60 60" fill="none" xmlns="http://www.w3.org/2000/svg">
<path d="M43.4775 7.00359C43.4777 6.1254 43.1291 5.28307 42.5083 4.66191C41.8875 4.04076 41.0454 3.69166 40.1672 3.69141C39.7323 3.69128 39.3017 3.77681 38.9 3.9431C38.4982 4.10939 38.1331 4.3532 37.8255 4.66059C37.2043 5.28139 36.8552 6.12352 36.855 7.00172C36.855 8.82984 40.1662 15.0023 40.1662 15.0023C40.1662 15.0023 43.4775 8.83172 43.4775 7.00359ZM38.5837 7.00359C38.5763 6.79132 38.6117 6.57973 38.6878 6.38142C38.7638 6.18311 38.879 6.00214 39.0265 5.8493C39.174 5.69646 39.3508 5.57488 39.5463 5.49179C39.7417 5.40871 39.9519 5.36583 40.1643 5.3657C40.3767 5.36558 40.587 5.40821 40.7826 5.49106C40.9781 5.57391 41.155 5.69529 41.3027 5.84795C41.4504 6.00062 41.5658 6.18145 41.6421 6.37967C41.7184 6.57789 41.7541 6.78944 41.7469 7.00172C41.733 7.41176 41.5604 7.80039 41.2655 8.08564C40.9706 8.37088 40.5765 8.53046 40.1662 8.5307C39.7559 8.53094 39.3616 8.37184 39.0664 8.08694C38.7712 7.80204 38.5981 7.41362 38.5837 7.00359ZM47.4019 34.6786C46.3519 34.6786 45.345 34.7667 44.4206 34.9092L20.8125 26.2055C21.1875 25.868 21.3975 25.493 21.3975 25.0992C21.3929 24.8916 21.3362 24.6885 21.2325 24.5086L37.0012 20.3123C37.8637 20.5692 38.9194 20.7248 40.0875 20.7248C42.9375 20.7248 45.2437 19.8173 45.2437 18.6961C45.2437 17.5711 42.9375 16.6655 40.0875 16.6655C37.2375 16.6655 34.9312 17.5748 34.9312 18.6961C34.9337 18.8273 34.9675 18.9536 35.0325 19.0748L18.555 22.8755C17.1739 22.4838 15.7436 22.2925 14.3081 22.3073C10.395 22.3073 7.22062 23.558 7.22062 25.1011C7.22062 26.6442 10.395 27.8948 14.3081 27.8948C15.3844 27.8948 16.3894 27.7917 17.3044 27.623L39.7856 36.7467C39.4294 37.1067 39.2119 37.4967 39.2119 37.9148C39.2119 38.2711 39.3919 38.5973 39.6544 38.9142L16.3031 47.6536C16.0081 47.6423 15.71 47.6361 15.4087 47.6348C9.33375 47.6348 4.4025 49.5773 4.4025 51.9661C4.4025 54.3605 9.33375 56.303 15.4087 56.303C21.4837 56.303 26.415 54.3642 26.415 51.968C26.415 51.5555 26.2594 51.158 25.9837 50.7811L45.2325 41.0048C45.9262 41.0798 46.6444 41.1267 47.3981 41.1267C51.9225 41.1267 55.5919 39.683 55.5919 37.8961C55.5919 36.1261 51.9225 34.6786 47.3981 34.6786H47.4019Z" fill="#108652"/>
</svg>
